<svg width="967" height="500" viewBox="0 0 967 500" fill="none" xmlns="http://www.w3.org/2000/svg">
<g clip-path="url(#clip0)">
<path d="M628.842 246.844C628.842 311.262 618.246 358.944 597.054 389.892C576.03 420.839 543.569 436.313 499.67 436.313C457.117 436.313 424.993 420.335 403.296 388.378C381.767 356.422 371.003 309.243 371.003 246.844C371.003 181.753 381.515 133.818 402.539 103.039C423.563 72.0916 455.94 56.6179 499.67 56.6179C542.223 56.6179 574.348 72.7644 596.045 105.057C617.91 137.35 628.842 184.613 628.842 246.844ZM448.456 246.844C448.456 292.088 452.324 324.549 460.061 344.228C467.966 363.738 481.169 373.493 499.67 373.493C517.835 373.493 530.954 363.57 539.027 343.723C547.101 323.876 551.137 291.583 551.137 246.844C551.137 201.6 547.017 169.139 538.775 149.46C530.702 129.614 517.667 119.69 499.67 119.69C481.337 119.69 468.218 129.614 460.313 149.46C452.408 169.139 448.456 201.6 448.456 246.844ZM860.948 431.267H782.991V217.831L783.748 182.762L785.009 144.415C772.058 157.365 763.06 165.859 758.014 169.896L715.63 203.955L678.039 157.029L796.867 62.4205H860.948V431.267Z" fill="#414B74"/>
<path d="M333.853 354.824H289.45V431.267H213.259V354.824H55.8301V300.582L217.548 62.4205H289.45V294.274H333.853V354.824ZM213.259 294.274V231.707C213.259 221.279 213.679 206.141 214.52 186.295C215.361 166.448 216.034 154.927 216.538 151.731H214.52C208.297 165.523 200.812 178.978 192.066 192.097L124.453 294.274H213.259Z" fill="#414B74"/>
<path d="M154.5 249C154.5 249 152.041 271.349 153.983 287.063C155.81 301.838 157.481 310.276 162.993 324.105C168.407 337.686 172.287 345.3 181.514 356.642C190.868 368.139 197.002 374.631 210.046 381.67C218.645 386.309 224.017 388.146 233.573 390.179C244.487 392.502 250.973 392.434 262.105 391.681C272.816 390.957 279.009 390.239 289.136 386.675C298.952 383.221 304.23 380.261 312.662 374.161C320.729 368.326 324.422 363.95 331.183 356.642C338.17 349.09 342.612 345.06 347.702 336.118C351.778 328.957 352.57 324.215 355.711 316.596C358.049 310.924 358.362 307.216 361.718 302.08C364.444 297.908 366.597 295.984 370.227 292.569C371.741 291.146 372.236 289.644 374.232 289.065C375.546 288.684 376.367 289.065 377.736 289.065H380.739H385.244C386.808 289.065 387.71 288.786 389.249 289.065C390.465 289.286 392.252 290.066 392.252 290.066L398.759 290.567H791.34C791.34 290.567 807.358 291.568 807.358 279.054V258.531C807.358 244.014 791.34 244.014 791.34 244.014L398.759 242.513C398.759 242.513 395.417 243.771 393.253 244.515C393.253 244.515 390.75 246.017 385.745 246.517C380.739 247.018 378.439 247.591 374.232 245.516C372.479 244.652 371.71 243.787 370.227 242.513C368.55 241.071 366.223 238.508 366.223 238.508C366.223 238.508 363.308 234.651 361.718 232.001C358.746 227.048 358.05 223.767 355.711 218.486C352.768 211.844 351.559 207.909 348.202 201.466C345.368 196.025 343.88 192.855 340.193 187.951C337.696 184.629 335.952 183.043 333.185 179.942C328.765 174.987 326.63 171.847 321.672 167.428C316.125 162.483 312.402 160.439 306.155 156.416C300.997 153.094 298.361 150.621 292.64 148.407C291.69 148.039 290.57 147.682 289.448 147.358V196.331C291.558 197.974 293.859 199.838 295.643 201.466C298.501 204.076 300.296 205.403 302.651 208.474C305.366 212.015 306.028 214.564 308.157 218.486C309.534 221.022 310.758 222.252 311.661 224.993C312.285 226.886 312.428 228.019 312.662 229.999C313.006 232.911 312.662 234.575 312.662 237.507C312.662 240.635 312.993 242.406 312.662 245.516C312.431 247.689 312.222 248.91 311.661 251.022C310.739 254.496 309.884 256.38 308.157 259.532C306.802 262.004 306.179 263.578 304.153 265.539C303.253 266.409 301.65 267.541 301.65 267.541C301.65 267.541 303.171 269.68 304.153 271.045C305.705 273.203 306.867 274.226 308.157 276.551C309.091 278.235 309.503 279.246 310.159 281.056C310.919 283.152 311.189 284.384 311.661 286.562C312.206 289.075 312.453 290.507 312.662 293.07C312.901 295.992 312.815 297.65 312.662 300.578C312.55 302.735 312.501 303.952 312.162 306.085C311.589 309.691 310.891 311.657 309.659 315.095C308.507 318.309 308.005 320.235 306.155 323.104C304.131 326.242 302.331 327.514 299.648 330.112C296.86 332.811 295.264 334.319 292.139 336.619C289.168 338.805 287.396 339.911 284.13 341.625C280.016 343.784 277.587 344.858 273.118 346.13C268.357 347.484 265.542 347.806 260.604 348.132C257.092 348.364 255.11 348.261 251.593 348.132C244.517 347.872 240.307 348.318 233.573 346.13C229.249 344.724 227.071 343.267 223.061 341.124C217.798 338.311 214.405 337.192 210.046 333.115C205.216 328.596 203.136 325.181 200.536 319.099C198.168 313.562 197.621 310.075 197.032 304.082C196.592 299.608 196.584 297.043 197.032 292.569C197.368 289.211 197.606 287.304 198.533 284.06C199.162 281.86 199.64 280.659 200.536 278.553C201.563 276.14 202.037 274.697 203.539 272.547C204.414 271.295 205.153 270.784 206.042 269.543C206.452 268.97 207.043 268.042 207.043 268.042L207.544 267.04L206.042 265.038C206.042 265.038 203.494 262.068 202.037 260.033C200.554 257.96 199.623 256.83 198.533 254.526C196.73 250.711 196.559 248.201 196.031 244.014C195.419 239.166 195.329 236.337 196.031 231.5C196.582 227.7 197.118 225.56 198.533 221.99C200.374 217.346 202.082 215.002 205.041 210.977C207.666 207.407 209.268 205.447 212.549 202.468C212.981 202.076 213.483 201.649 214 201.225L216.5 152V151.5H214.5L154.5 249Z" fill="url(#paint0_radial)"/>
<path d="M673.707 290.068V362.65C673.707 362.65 674.208 365.653 676.711 365.653C678.713 365.653 679.714 365.653 682.718 365.653C685.22 365.653 685.721 362.65 685.721 362.65V318.6H702.74V335.619C702.74 335.619 703.741 339.123 705.744 339.123C707.746 339.123 709.748 339.123 711.75 339.123C713.753 339.123 714.754 335.619 714.754 335.619V318.099H731.773V335.118C731.773 335.118 732.774 339.123 735.777 339.123C738.28 339.123 738.023 339.123 739.782 339.123C742.785 339.123 743.786 335.118 743.786 335.118V318.099H760.806L760.305 362.149C760.305 362.149 760.305 365.653 764.31 365.653C766.069 365.653 767.556 365.653 769.315 365.653C772.819 365.653 772.819 362.149 772.819 362.149V290.068H673.707Z" fill="url(#paint1_linear)"/>
<path d="M630.659 246.017C630.659 240.488 635.141 236.005 640.67 236.005H649.68C655.209 236.005 659.692 240.488 659.692 246.017V289.065C659.692 294.594 655.209 299.077 649.68 299.077H640.67C635.141 299.077 630.659 294.594 630.659 289.065V246.017Z" fill="url(#paint2_radial)"/>
</g>
<defs>
<radialGradient id="paint0_radial" cx="0" cy="0" r="1" gradientUnits="userSpaceOnUse" gradientTransform="translate(480.297 269.754) rotate(90.078) scale(218.247 583.19)">
<stop stop-color="#E68072"/>
<stop offset="1" stop-color="#F9F871"/>
</radialGradient>
<linearGradient id="paint1_linear" x1="723.308" y1="260.471" x2="722.809" y2="350.999" gradientUnits="userSpaceOnUse">
<stop stop-color="#F9F871"/>
<stop offset="1" stop-color="#E68072"/>
</linearGradient>
<radialGradient id="paint2_radial" cx="0" cy="0" r="1" gradientUnits="userSpaceOnUse" gradientTransform="translate(645.175 267.541) rotate(90.0134) scale(56.2318 25.8845)">
<stop stop-color="#F9F871"/>
<stop offset="1" stop-color="#E68072"/>
</radialGradient>
<clipPath id="clip0">
<rect width="967" height="500" fill="white"/>
</clipPath>
</defs>
</svg>
